<?xml version="1.0" standalone="no"?>
<!DOCTYPE svg PUBLIC "-//W3C//DTD SVG 20010904//EN"
 "http://www.w3.org/TR/2001/REC-SVG-20010904/DTD/svg10.dtd">
<svg version="1.0" xmlns="http://www.w3.org/2000/svg"
 width="1920.000000pt" height="1920.000000pt" viewBox="0 0 1920.000000 1920.000000"
 preserveAspectRatio="xMidYMid meet">

<g transform="translate(0.000000,1920.000000) scale(0.100000,-0.100000)"
fill="#000000" stroke="none">
<path d="M2 9598 l3 -9603 2 9597 3 9598 9598 3 9597 2 -9602 3 -9603 2 2
-9602z"/>
<path d="M8350 15480 l0 -160 -320 0 -320 0 0 -165 0 -165 -325 0 -325 0 0
-160 0 -160 -320 0 -320 0 0 -160 0 -160 -162 -2 -163 -3 -3 -157 -3 -157
-157 -3 -157 -3 -3 -162 -2 -163 -160 0 -160 0 0 -160 0 -160 -160 0 -160 0
-2 -322 -3 -323 -160 -2 -160 -2 -3 -320 -2 -321 -160 0 -160 0 0 -325 0 -325
160 0 160 0 0 -480 0 -480 -157 0 -158 0 0 478 0 477 -162 3 -163 2 0 -480 0
-480 -482 -2 -483 -3 -3 -162 -2 -163 -160 0 -160 0 0 -1290 0 -1290 160 0
160 0 0 -160 0 -160 322 -2 323 -3 3 -323 2 -322 160 0 160 0 0 -805 0 -805
163 2 162 3 0 477 0 478 156 0 157 0 7 -322 c3 -178 5 -393 3 -478 l-3 -155
-162 -3 -163 -2 0 -165 0 -165 160 0 160 0 0 -160 0 -160 325 0 325 0 0 -160
0 -160 160 0 160 0 2 -160 3 -161 320 -2 320 -2 3 -163 2 -162 320 0 320 0 0
-160 0 -160 645 0 645 0 0 -160 0 -160 1615 0 1615 0 0 160 0 160 645 0 c355
0 645 3 645 8 1 4 2 76 2 160 l2 152 323 0 323 0 2 163 3 162 323 3 322 2 0
160 0 160 160 0 160 0 0 160 0 160 320 0 320 0 0 160 0 160 163 2 162 3 3 163
2 162 160 0 160 0 0 805 0 805 160 0 160 0 2 323 3 322 323 3 322 2 0 160 0
160 160 0 160 0 0 1290 0 1290 -160 0 -160 0 -2 163 -3 162 -482 3 -483 2 0
480 0 480 -160 0 -160 0 0 325 0 325 -165 0 -165 0 0 320 0 320 -127 1 c-71 1
-141 2 -158 3 l-30 1 -3 323 -2 322 -160 0 -160 0 0 160 0 160 -160 0 -160 0
-2 163 -3 162 -162 3 -163 2 0 160 0 160 -160 0 -160 0 0 160 0 160 -160 0
-160 0 0 160 0 160 -322 2 -323 3 -3 163 -2 162 -485 0 -485 0 0 160 0 160
-1615 0 -1615 0 0 -160z m3230 -325 l0 -165 325 0 325 0 0 -160 0 -160 320 0
320 0 0 -160 0 -160 325 0 325 0 0 -165 0 -165 160 0 160 0 0 -160 0 -160 160
0 160 0 0 -160 0 -160 166 0 165 0 -2 -322 -2 -323 162 -3 161 -2 0 -320 0
-320 -160 0 -160 0 0 -322 0 -323 160 3 160 3 2 317 3 317 158 3 157 3 0 -326
0 -325 160 0 160 0 0 -480 0 -480 -160 0 -160 0 0 480 0 480 -160 0 -160 0 0
-480 0 -480 -160 0 -160 0 0 320 0 320 -160 0 -160 0 -2 163 -3 162 -162 3
-163 2 0 160 0 160 -160 0 -160 0 0 160 0 160 -321 2 -322 3 0 158 0 157 -324
0 -323 0 0 165 0 165 -485 0 -485 0 0 160 0 160 -1292 -2 -1293 -3 -3 -157 -3
-158 -479 0 -480 0 -2 -162 -3 -163 -320 -2 -320 -2 -3 -160 -2 -161 -321 -2
-320 -3 -1 -155 0 -155 -162 -5 -161 -5 -3 -157 -3 -157 -157 -3 -157 -3 -3
-162 -2 -163 -160 0 -160 0 0 -320 0 -320 -160 0 -160 0 0 238 c0 131 -3 347
-7 480 l-6 242 -154 0 -153 0 0 325 0 326 158 -3 157 -3 3 -320 2 -320 160 3
160 3 0 319 0 320 -160 0 -160 0 0 320 0 320 160 0 160 0 0 325 0 325 160 0
160 0 0 160 0 160 163 2 162 3 3 157 3 157 157 3 157 3 3 163 2 162 320 0 320
0 0 160 0 160 325 0 325 0 0 160 0 160 319 0 c282 0 320 2 325 16 3 9 6 83 6
165 l0 149 1610 0 1610 0 0 -165z m-1290 -3065 l0 -320 -645 0 -645 0 0 -165
0 -165 -325 0 -325 0 0 -160 0 -160 -320 0 -320 0 0 -160 0 -160 -322 -2 -323
-3 -3 -163 -2 -163 -158 2 -157 1 -3 -321 -2 -321 -320 0 -320 0 -2 293 c-1
160 -2 301 -3 312 -3 42 1 43 163 43 l157 1 3 321 2 320 160 0 160 0 0 160 0
160 323 2 322 3 3 163 2 162 320 0 320 0 0 160 0 160 325 0 325 0 0 160 0 160
805 0 805 0 0 -320z m1610 160 l0 -160 165 0 165 0 0 -325 0 -325 -165 0 -165
0 0 -160 0 -160 -320 0 -320 0 0 160 0 160 -160 0 -160 0 0 325 0 325 160 0
160 0 0 160 0 160 320 0 320 0 0 -160z m-7420 -3390 l0 -1610 160 0 160 0 2
-162 c3 -148 5 -163 21 -162 9 1 82 2 162 3 l145 1 0 155 0 155 160 0 160 0 0
-155 0 -155 -160 0 -160 0 0 -165 0 -165 160 0 160 0 0 160 0 160 160 0 160 0
0 -160 0 -160 160 0 160 0 0 -160 0 -159 -157 -3 -158 -3 -3 -157 -3 -158 166
0 165 0 0 160 0 160 320 0 320 0 0 -165 0 -165 320 0 320 0 0 -160 0 -160
2585 0 2585 0 0 160 0 160 323 2 322 3 3 163 2 162 320 0 320 0 0 160 0 160
160 0 160 0 0 -160 0 -160 160 0 160 0 0 160 0 160 -155 0 -154 0 -3 160 -3
160 158 0 157 0 0 -160 0 -160 165 0 165 0 0 165 0 165 -160 0 -160 0 0 155 0
155 160 0 160 0 0 -155 0 -155 160 0 160 0 0 160 0 160 -160 0 -160 0 0 1610
0 1610 160 0 160 0 0 -1610 0 -1610 158 0 159 0 6 488 c4 268 7 992 7 1610 l0
1122 153 0 154 0 6 -1926 c4 -1059 4 -1930 1 -1935 -3 -5 -77 -9 -165 -9
l-159 0 0 -160 0 -160 -160 0 -160 0 0 -160 0 -160 -160 0 -160 0 -2 -160 -3
-160 -160 -3 -160 -2 -3 -162 -2 -163 -320 0 -320 0 0 -160 0 -160 319 0 c218
0 322 -3 326 -11 4 -6 4 -150 0 -320 l-8 -309 -156 -2 -156 -3 -3 -163 -2
-162 -320 0 -320 0 -1 -152 c-1 -84 -1 -156 0 -161 0 -4 -145 -7 -324 -7
l-325 0 0 -159 0 -159 -314 -7 c-173 -4 -319 -4 -326 0 -6 4 -155 4 -331 0
l-319 -8 0 -158 0 -159 -1612 2 -1613 3 -3 158 -3 157 -162 2 c-89 1 -378 2
-642 3 l-480 1 -3 162 -2 162 -320 0 -320 0 0 160 0 160 -320 0 -320 0 -2 163
-3 162 -162 3 -163 2 0 320 0 320 320 0 320 0 2 -162 3 -163 323 -3 322 -2 0
-160 0 -160 325 0 325 0 -2 163 -3 162 -322 3 -323 2 0 160 0 160 -320 0 -320
0 0 160 0 160 -322 2 -323 3 -5 160 -5 160 -158 0 -157 0 0 163 0 162 -162 0
-163 0 0 157 0 158 -162 3 -163 2 0 160 0 160 -160 0 -160 0 0 1935 0 1935
160 0 160 0 0 -1610z m640 0 l0 -1610 -155 0 -155 0 0 1610 0 1610 155 0 155
0 0 -1610z m-1288 958 c2 -183 3 -763 3 -1288 l0 -955 -322 -3 -323 -2 0 160
0 160 160 0 160 0 0 165 0 165 -160 0 -160 0 0 320 0 320 160 0 160 0 0 160 0
159 -157 3 -158 3 -3 483 -2 482 320 0 319 0 3 -332z m12908 -153 l0 -485
-160 0 -160 0 0 -160 0 -160 160 0 160 0 0 -320 0 -319 -157 -3 -158 -3 -3
-162 -2 -163 160 0 160 0 0 -160 0 -160 -320 0 -320 0 0 1290 0 1290 320 0
320 0 0 -485z m-10000 -805 l0 -320 -320 0 -320 0 -1 290 c-1 160 -2 304 -3
320 l-1 30 323 0 322 0 0 -320z m7102 -802 l3 -163 158 -3 157 -3 0 -319 0
-320 -160 0 -160 0 0 -165 0 -165 -322 2 -323 3 -3 163 -2 162 -160 0 -160 0
0 320 0 320 160 0 160 0 0 158 c0 87 3 162 7 165 3 4 149 7 324 7 l319 0 2
-162z m-1292 -1453 l0 -325 -325 0 -325 0 0 318 c0 175 3 322 7 325 3 4 150 7
325 7 l318 0 0 -325z m2900 -1135 l0 -480 -160 0 -160 0 0 480 0 480 160 0
160 0 0 -480z"/>
<path d="M9963 14342 l-1283 -2 0 -155 0 -155 1290 0 1290 0 0 154 c0 85 -3
156 -7 158 -5 2 -585 2 -1290 0z"/>
<path d="M7710 13860 l0 -160 -320 0 -320 0 0 -160 0 -160 320 0 320 0 0 160
0 160 480 0 480 0 0 160 0 160 -480 0 -480 0 0 -160z"/>
<path d="M11260 13860 l0 -160 483 2 482 3 3 158 3 157 -486 0 -485 0 0 -160z"/>
<path d="M12230 13540 l0 -160 320 0 320 0 0 160 0 160 -320 0 -320 0 0 -160z"/>
<path d="M6420 13220 l0 -160 320 0 320 0 0 160 0 160 -320 0 -320 0 0 -160z"/>
<path d="M12877 13373 c-4 -3 -7 -75 -7 -160 l0 -153 325 0 325 0 0 -160 0
-160 160 0 161 0 -3 158 -3 157 -157 3 -158 3 0 159 0 160 -318 0 c-175 0
-322 -3 -325 -7z"/>
<path d="M6100 12899 l0 -159 160 0 161 0 -3 158 -3 157 -157 2 -158 2 0 -160z"/>
<path d="M5770 12570 l0 -160 -160 0 -160 0 0 -160 0 -160 160 0 160 0 0 160
0 160 160 0 160 0 0 160 0 160 -160 0 -160 0 0 -160z"/>
<path d="M13840 12570 l0 -160 160 0 160 0 0 160 0 160 -160 0 -160 0 0 -160z"/>
<path d="M14168 12250 l-3 -160 163 0 162 0 0 160 0 160 -160 0 -159 0 -3
-160z"/>
<path d="M5450 6440 l0 -160 160 0 160 0 0 160 0 160 -160 0 -160 0 0 -160z"/>
<path d="M13840 6120 l0 -160 -160 0 -160 0 0 -160 0 -160 160 0 160 0 0 160
0 160 160 0 160 0 0 160 0 160 -160 0 -160 0 0 -160z"/>
<path d="M6100 5800 l0 -160 160 0 160 0 0 160 0 160 -160 0 -160 0 0 -160z"/>
<path d="M6424 5631 c-2 -2 -4 -76 -4 -163 l0 -158 320 0 320 0 2 150 c0 83 1
155 2 160 1 10 -630 21 -640 11z"/>
<path d="M12870 5470 l0 -160 -485 0 -485 0 0 -160 0 -160 -1935 0 -1935 0 0
160 0 160 -480 0 -480 0 0 -160 0 -160 480 0 480 0 0 -160 0 -160 1935 0 1935
0 0 160 0 160 485 0 485 0 0 160 0 160 325 0 325 0 0 160 0 160 -325 0 -325 0
0 -160z"/>
<path d="M13200 4988 c0 -2 -1 -74 -1 -160 l-1 -158 -324 0 -324 0 0 -165 0
-165 -485 0 -485 0 0 -160 0 -160 -1611 2 -1611 3 1 158 2 157 -486 0 -485 0
0 -160 0 -160 480 0 480 0 0 -160 0 -160 1615 0 1615 0 0 160 0 160 485 0 485
0 0 160 0 160 325 0 325 0 0 160 0 160 320 0 320 0 0 165 0 165 -320 0 c-176
0 -320 -1 -320 -2z"/>
</g>
</svg>
